<svg xmlns="http://www.w3.org/2000/svg" version="1.1" xmlns:xlink="http://www.w3.org/1999/xlink" xmlns:svgjs="http://svgjs.dev/svgjs" width="1000" height="1000" viewBox="0 0 1000 1000"><g transform="matrix(1,0,0,1,-0.14221556886212738,-0.14221556886229791)"><svg viewBox="0 0 334 334" data-background-color="#ffffff" preserveAspectRatio="xMidYMid meet" height="1000" width="1000" xmlns="http://www.w3.org/2000/svg" xmlns:xlink="http://www.w3.org/1999/xlink"><g id="tight-bounds" transform="matrix(1,0,0,1,0.04749999999998522,0.04750000000001364)"><svg viewBox="0 0 333.90454557049503 333.90454557049503" height="333.90454557049503" width="333.90454557049503"><g><svg></svg></g><g><svg viewBox="0 0 333.90454557049503 333.90454557049503" height="333.90454557049503" width="333.90454557049503"><g><path d="M0 166.952c0-92.205 74.747-166.952 166.952-166.952 92.205 0 166.952 74.747 166.953 166.952 0 92.205-74.747 166.952-166.953 166.953-92.205 0-166.952-74.747-166.952-166.953zM166.952 316.63c82.665 0 149.677-67.013 149.678-149.678 0-82.665-67.013-149.677-149.678-149.677-82.665 0-149.677 67.013-149.677 149.677 0 82.665 67.013 149.677 149.677 149.678z" data-fill-palette-color="tertiary" fill="#fce44d" stroke="transparent"></path><ellipse rx="160.27418187383762" ry="160.27418187383762" cx="166.95227278524752" cy="166.95227278524752" fill="#fce44d" stroke="transparent" stroke-width="0" fill-opacity="1" data-fill-palette-color="tertiary"></ellipse></g><g transform="matrix(1,0,0,1,75.05780377697492,71.17305217166896)"><svg viewBox="0 0 183.7889380165452 191.55844122715712" height="191.55844122715712" width="183.7889380165452"><g><svg viewBox="0 0 183.7889380165452 191.55844122715712" height="191.55844122715712" width="183.7889380165452"><g><svg viewBox="0 0 183.7889380165452 191.55844122715712" height="191.55844122715712" width="183.7889380165452"><g><svg viewBox="0 0 183.7889380165452 191.55844122715712" height="191.55844122715712" width="183.7889380165452"><g id="textblocktransform"><svg viewBox="0 0 183.7889380165452 191.55844122715712" height="191.55844122715712" width="183.7889380165452" id="textblock"><g><svg viewBox="0 0 183.7889380165452 191.55844122715712" height="191.55844122715712" width="183.7889380165452"><g transform="matrix(1,0,0,1,0,0)"><svg width="183.7889380165452" viewBox="1.6500000953674316 -35.5 34.29999923706055 35.75" height="191.55844122715712" data-palette-color="#ffffff"><path d="M1.65-17.6Q1.65-22.8 3.9-26.88 6.15-30.95 10.18-33.23 14.2-35.5 19.3-35.5L19.3-35.5Q25.55-35.5 30-32.2 34.45-28.9 35.95-23.2L35.95-23.2 26.55-23.2Q25.5-25.4 23.58-26.55 21.65-27.7 19.2-27.7L19.2-27.7Q15.25-27.7 12.8-24.95 10.35-22.2 10.35-17.6L10.35-17.6Q10.35-13 12.8-10.25 15.25-7.5 19.2-7.5L19.2-7.5Q21.65-7.5 23.58-8.65 25.5-9.8 26.55-12L26.55-12 35.95-12Q34.45-6.3 30-3.03 25.55 0.25 19.3 0.25L19.3 0.25Q14.2 0.25 10.18-2.02 6.15-4.3 3.9-8.35 1.65-12.4 1.65-17.6L1.65-17.6Z" opacity="1" transform="matrix(1,0,0,1,0,0)" fill="#ffffff" class="wordmark-text-0" data-fill-palette-color="quaternary" id="text-0"></path></svg></g></svg></g></svg></g></svg></g><g></g></svg></g></svg></g></svg></g></svg></g><defs></defs></svg><rect width="333.90454557049503" height="333.90454557049503" fill="none" stroke="none" visibility="hidden"></rect></g></svg></g></svg>